<?xml version="1.0" encoding="UTF-8" standalone="no"?><svg xmlns="http://www.w3.org/2000/svg" xmlns:xlink="http://www.w3.org/1999/xlink" contentStyleType="text/css" height="949px" preserveAspectRatio="none" style="width:931px;height:949px;background:#FFFFFF;" version="1.1" viewBox="0 0 931 949" width="931px" zoomAndPan="magnify"><defs/><g><line style="stroke:#181818;stroke-width:0.5;stroke-dasharray:5.0,5.0;" x1="57" x2="57" y1="81.2969" y2="868.6172"/><line style="stroke:#181818;stroke-width:0.5;stroke-dasharray:5.0,5.0;" x1="191.5" x2="191.5" y1="81.2969" y2="868.6172"/><line style="stroke:#181818;stroke-width:0.5;stroke-dasharray:5.0,5.0;" x1="276.5" x2="276.5" y1="81.2969" y2="868.6172"/><line style="stroke:#181818;stroke-width:0.5;stroke-dasharray:5.0,5.0;" x1="533" x2="533" y1="81.2969" y2="868.6172"/><line style="stroke:#181818;stroke-width:0.5;stroke-dasharray:5.0,5.0;" x1="877.5" x2="877.5" y1="81.2969" y2="868.6172"/><text fill="#000000" font-family="sans-serif" font-size="14" lengthAdjust="spacing" textLength="99" x="5" y="77.9951">IRMA app user</text><ellipse cx="57.5" cy="13.5" rx="8" ry="8" style="stroke:#7A2626;stroke-width:0.5;fill:none;"/><path d="M57.5,21.5 L57.5,48.5 M44.5,29.5 L70.5,29.5 M57.5,48.5 L44.5,63.5 M57.5,48.5 L70.5,63.5 " fill="none" style="stroke:#7A2626;stroke-width:0.5;"/><text fill="#000000" font-family="sans-serif" font-size="14" lengthAdjust="spacing" textLength="99" x="5" y="880.6123">IRMA app user</text><ellipse cx="57.5" cy="892.4141" rx="8" ry="8" style="stroke:#7A2626;stroke-width:0.5;fill:none;"/><path d="M57.5,900.4141 L57.5,927.4141 M44.5,908.4141 L70.5,908.4141 M57.5,927.4141 L44.5,942.4141 M57.5,927.4141 L70.5,942.4141 " fill="none" style="stroke:#7A2626;stroke-width:0.5;"/><rect fill="#004C92" height="30.2969" rx="2.5" ry="2.5" style="stroke:#7A2626;stroke-width:0.5;" width="78" x="152.5" y="50"/><text fill="#FFFFFF" font-family="sans-serif" font-size="14" lengthAdjust="spacing" textLength="64" x="159.5" y="69.9951">IRMA app</text><rect fill="#004C92" height="30.2969" rx="2.5" ry="2.5" style="stroke:#7A2626;stroke-width:0.5;" width="78" x="152.5" y="867.6172"/><text fill="#FFFFFF" font-family="sans-serif" font-size="14" lengthAdjust="spacing" textLength="64" x="159.5" y="887.6123">IRMA app</text><rect fill="#004C92" height="30.2969" rx="2.5" ry="2.5" style="stroke:#7A2626;stroke-width:0.5;" width="73" x="240.5" y="50"/><text fill="#FFFFFF" font-family="sans-serif" font-size="14" lengthAdjust="spacing" textLength="59" x="247.5" y="69.9951">frontend</text><rect fill="#004C92" height="30.2969" rx="2.5" ry="2.5" style="stroke:#7A2626;stroke-width:0.5;" width="73" x="240.5" y="867.6172"/><text fill="#FFFFFF" font-family="sans-serif" font-size="14" lengthAdjust="spacing" textLength="59" x="247.5" y="887.6123">frontend</text><rect fill="#004C92" height="30.2969" rx="2.5" ry="2.5" style="stroke:#7A2626;stroke-width:0.5;" width="82" x="492" y="50"/><text fill="#FFFFFF" font-family="sans-serif" font-size="14" lengthAdjust="spacing" textLength="68" x="499" y="69.9951">requestor</text><rect fill="#004C92" height="30.2969" rx="2.5" ry="2.5" style="stroke:#7A2626;stroke-width:0.5;" width="82" x="492" y="867.6172"/><text fill="#FFFFFF" font-family="sans-serif" font-size="14" lengthAdjust="spacing" textLength="68" x="499" y="887.6123">requestor</text><rect fill="#004C92" height="30.2969" rx="2.5" ry="2.5" style="stroke:#7A2626;stroke-width:0.5;" width="95" x="830.5" y="50"/><text fill="#FFFFFF" font-family="sans-serif" font-size="14" lengthAdjust="spacing" textLength="81" x="837.5" y="69.9951">IRMA server</text><rect fill="#004C92" height="30.2969" rx="2.5" ry="2.5" style="stroke:#7A2626;stroke-width:0.5;" width="95" x="830.5" y="867.6172"/><text fill="#FFFFFF" font-family="sans-serif" font-size="14" lengthAdjust="spacing" textLength="81" x="837.5" y="887.6123">IRMA server</text><polygon fill="#181818" points="265,108.4297,275,112.4297,265,116.4297,269,112.4297" style="stroke:#181818;stroke-width:1.0;"/><line style="stroke:#181818;stroke-width:1.0;" x1="57.5" x2="271" y1="112.4297" y2="112.4297"/><text fill="#000000" font-family="sans-serif" font-size="13" lengthAdjust="spacing" textLength="95" x="64.5" y="107.3638">initiate session</text><polygon fill="#181818" points="521,137.5625,531,141.5625,521,145.5625,525,141.5625" style="stroke:#181818;stroke-width:1.0;"/><line style="stroke:#181818;stroke-width:1.0;" x1="277" x2="527" y1="141.5625" y2="141.5625"/><text fill="#1D5B2A" font-family="sans-serif" font-size="13" font-weight="bold" lengthAdjust="spacing" textLength="38" x="284" y="136.4966">POST</text><text fill="#1D5B2A" font-family="sans-serif" font-size="13" lengthAdjust="spacing" textLength="56" x="326" y="136.4966">/session/</text><text fill="#000000" font-family="sans-serif" font-size="13" lengthAdjust="spacing" textLength="103" x="386" y="136.4966">(create session)</text><polygon fill="#181818" points="866,166.6953,876,170.6953,866,174.6953,870,170.6953" style="stroke:#181818;stroke-width:1.0;"/><line style="stroke:#181818;stroke-width:1.0;" x1="533" x2="872" y1="170.6953" y2="170.6953"/><text fill="#000000" font-family="sans-serif" font-size="13" lengthAdjust="spacing" textLength="95" x="540" y="165.6294">initiate session</text><line style="stroke:#181818;stroke-width:1.0;" x1="836" x2="878" y1="199.8281" y2="199.8281"/><line style="stroke:#181818;stroke-width:1.0;" x1="836" x2="836" y1="199.8281" y2="212.8281"/><line style="stroke:#181818;stroke-width:1.0;" x1="836" x2="877" y1="212.8281" y2="212.8281"/><polygon fill="#181818" points="869,208.8281,879,212.8281,869,216.8281,873,212.8281" style="stroke:#181818;stroke-width:1.0;"/><text fill="#000000" font-family="sans-serif" font-size="13" lengthAdjust="spacing" textLength="151" x="727" y="194.7622">set state to INITIALIZED</text><polygon fill="#181818" points="544,237.9609,534,241.9609,544,245.9609,540,241.9609" style="stroke:#181818;stroke-width:1.0;"/><line style="stroke:#181818;stroke-width:1.0;stroke-dasharray:2.0,2.0;" x1="538" x2="877" y1="241.9609" y2="241.9609"/><text fill="#000000" font-family="sans-serif" font-size="13" lengthAdjust="spacing" textLength="321" x="550" y="236.895">session pointer + requestor token + frontendAuth</text><polygon fill="#181818" points="288,267.0938,278,271.0938,288,275.0938,284,271.0938" style="stroke:#181818;stroke-width:1.0;"/><line style="stroke:#181818;stroke-width:1.0;stroke-dasharray:2.0,2.0;" x1="282" x2="532" y1="271.0938" y2="271.0938"/><text fill="#000000" font-family="sans-serif" font-size="13" lengthAdjust="spacing" textLength="232" x="294" y="266.0278">session pointer (QR) + frontendAuth</text><polygon fill="#181818" points="866,296.2266,876,300.2266,866,304.2266,870,300.2266" style="stroke:#181818;stroke-width:1.0;"/><line style="stroke:#181818;stroke-width:1.0;" x1="277" x2="872" y1="300.2266" y2="300.2266"/><text fill="#1D5B2A" font-family="sans-serif" font-size="13" font-weight="bold" lengthAdjust="spacing" textLength="28" x="284" y="295.1606">GET</text><text fill="#1D5B2A" font-family="sans-serif" font-size="13" lengthAdjust="spacing" textLength="279" x="316" y="295.1606">/irma/session/{clientToken}/frontend/status</text><text fill="#000000" font-family="sans-serif" font-size="13" lengthAdjust="spacing" textLength="85" x="599" y="295.1606">(start polling)</text><polygon fill="#181818" points="68.5,325.3594,58.5,329.3594,68.5,333.3594,64.5,329.3594" style="stroke:#181818;stroke-width:1.0;"/><line style="stroke:#181818;stroke-width:1.0;" x1="62.5" x2="276" y1="329.3594" y2="329.3594"/><text fill="#000000" font-family="sans-serif" font-size="13" lengthAdjust="spacing" textLength="18" x="74.5" y="324.2935">QR</text><polygon fill="#181818" points="179.5,354.4922,189.5,358.4922,179.5,362.4922,183.5,358.4922" style="stroke:#181818;stroke-width:1.0;"/><line style="stroke:#181818;stroke-width:1.0;" x1="57.5" x2="185.5" y1="358.4922" y2="358.4922"/><text fill="#000000" font-family="sans-serif" font-size="13" lengthAdjust="spacing" textLength="52" x="64.5" y="353.4263">scan QR</text><polygon fill="#181818" points="265,383.625,275,387.625,265,391.625,269,387.625" style="stroke:#181818;stroke-width:1.0;"/><line style="stroke:#181818;stroke-width:1.0;" x1="191.5" x2="271" y1="387.625" y2="387.625"/><text fill="#000000" font-family="sans-serif" font-size="13" lengthAdjust="spacing" textLength="51" x="198.5" y="382.5591">read QR</text><polygon fill="#181818" points="866,412.7578,876,416.7578,866,420.7578,870,416.7578" style="stroke:#181818;stroke-width:1.0;"/><line style="stroke:#181818;stroke-width:1.0;" x1="191.5" x2="872" y1="416.7578" y2="416.7578"/><text fill="#1D5B2A" font-family="sans-serif" font-size="13" font-weight="bold" lengthAdjust="spacing" textLength="28" x="198.5" y="411.6919">GET</text><text fill="#1D5B2A" font-family="sans-serif" font-size="13" lengthAdjust="spacing" textLength="177" x="230.5" y="411.6919">/irma/session/{clientToken}</text><polygon fill="#181818" points="202.5,441.8906,192.5,445.8906,202.5,449.8906,198.5,445.8906" style="stroke:#181818;stroke-width:1.0;"/><line style="stroke:#181818;stroke-width:1.0;stroke-dasharray:2.0,2.0;" x1="196.5" x2="877" y1="445.8906" y2="445.8906"/><text fill="#000000" font-family="sans-serif" font-size="13" lengthAdjust="spacing" textLength="101" x="208.5" y="440.8247">session request</text><line style="stroke:#181818;stroke-width:1.0;" x1="836" x2="878" y1="475.0234" y2="475.0234"/><line style="stroke:#181818;stroke-width:1.0;" x1="836" x2="836" y1="475.0234" y2="488.0234"/><line style="stroke:#181818;stroke-width:1.0;" x1="836" x2="877" y1="488.0234" y2="488.0234"/><polygon fill="#181818" points="869,484.0234,879,488.0234,869,492.0234,873,488.0234" style="stroke:#181818;stroke-width:1.0;"/><text fill="#000000" font-family="sans-serif" font-size="13" lengthAdjust="spacing" textLength="186" x="692" y="469.9575">change state to CONNECTED</text><polygon fill="#181818" points="288,513.1563,278,517.1563,288,521.1563,284,517.1563" style="stroke:#181818;stroke-width:1.0;"/><line style="stroke:#181818;stroke-width:1.0;stroke-dasharray:2.0,2.0;" x1="282" x2="877" y1="517.1563" y2="517.1563"/><text fill="#000000" font-family="sans-serif" font-size="13" lengthAdjust="spacing" textLength="306" x="294" y="512.0903">polling response: state changed to CONNECTED</text><polygon fill="#181818" points="68.5,542.2891,58.5,546.2891,68.5,550.2891,64.5,546.2891" style="stroke:#181818;stroke-width:1.0;"/><line style="stroke:#181818;stroke-width:1.0;" x1="62.5" x2="190.5" y1="546.2891" y2="546.2891"/><text fill="#000000" font-family="sans-serif" font-size="13" lengthAdjust="spacing" textLength="110" x="74.5" y="541.2231">perform session?</text><polygon fill="#181818" points="179.5,571.4219,189.5,575.4219,179.5,579.4219,183.5,575.4219" style="stroke:#181818;stroke-width:1.0;"/><line style="stroke:#181818;stroke-width:1.0;stroke-dasharray:2.0,2.0;" x1="57.5" x2="185.5" y1="575.4219" y2="575.4219"/><text fill="#000000" font-family="sans-serif" font-size="13" lengthAdjust="spacing" textLength="22" x="64.5" y="570.356">yes</text><polygon fill="#181818" points="866,600.5547,876,604.5547,866,608.5547,870,604.5547" style="stroke:#181818;stroke-width:1.0;"/><line style="stroke:#181818;stroke-width:1.0;" x1="191.5" x2="872" y1="604.5547" y2="604.5547"/><text fill="#1D5B2A" font-family="sans-serif" font-size="13" font-weight="bold" lengthAdjust="spacing" textLength="38" x="198.5" y="599.4888">POST</text><text fill="#1D5B2A" font-family="sans-serif" font-size="13" lengthAdjust="spacing" textLength="513" x="240.5" y="599.4888">/irma/session/{clientToken}/proofs or /irma/session/{clientToken}/commitments</text><polygon fill="#181818" points="202.5,629.6875,192.5,633.6875,202.5,637.6875,198.5,633.6875" style="stroke:#181818;stroke-width:1.0;"/><line style="stroke:#181818;stroke-width:1.0;stroke-dasharray:2.0,2.0;" x1="196.5" x2="877" y1="633.6875" y2="633.6875"/><text fill="#000000" font-family="sans-serif" font-size="13" lengthAdjust="spacing" textLength="388" x="208.5" y="628.6216">proofStatus, possibly nextSession, possibly issuer signatures</text><line style="stroke:#181818;stroke-width:1.0;" x1="836" x2="878" y1="662.8203" y2="662.8203"/><line style="stroke:#181818;stroke-width:1.0;" x1="836" x2="836" y1="662.8203" y2="675.8203"/><line style="stroke:#181818;stroke-width:1.0;" x1="836" x2="877" y1="675.8203" y2="675.8203"/><polygon fill="#181818" points="869,671.8203,879,675.8203,869,679.8203,873,675.8203" style="stroke:#181818;stroke-width:1.0;"/><text fill="#000000" font-family="sans-serif" font-size="13" lengthAdjust="spacing" textLength="143" x="735" y="657.7544">change state to DONE</text><polygon fill="#181818" points="288,700.9531,278,704.9531,288,708.9531,284,704.9531" style="stroke:#181818;stroke-width:1.0;"/><line style="stroke:#181818;stroke-width:1.0;stroke-dasharray:2.0,2.0;" x1="282" x2="877" y1="704.9531" y2="704.9531"/><text fill="#000000" font-family="sans-serif" font-size="13" lengthAdjust="spacing" textLength="425" x="294" y="699.8872">polling response: state changed to DONE (+ possibly nextSession)</text><polygon fill="#181818" points="521,730.0859,531,734.0859,521,738.0859,525,734.0859" style="stroke:#181818;stroke-width:1.0;"/><line style="stroke:#181818;stroke-width:1.0;" x1="277" x2="527" y1="734.0859" y2="734.0859"/><text fill="#000000" font-family="sans-serif" font-size="13" lengthAdjust="spacing" textLength="32" x="284" y="729.02">done</text><polygon fill="#181818" points="866,759.2188,876,763.2188,866,767.2188,870,763.2188" style="stroke:#181818;stroke-width:1.0;"/><line style="stroke:#181818;stroke-width:1.0;" x1="533" x2="872" y1="763.2188" y2="763.2188"/><text fill="#1D5B2A" font-family="sans-serif" font-size="13" font-weight="bold" lengthAdjust="spacing" textLength="28" x="540" y="758.1528">GET</text><text fill="#1D5B2A" font-family="sans-serif" font-size="13" lengthAdjust="spacing" textLength="212" x="572" y="758.1528">/session/{requestorToken}/result</text><polygon fill="#181818" points="544,788.3516,534,792.3516,544,796.3516,540,792.3516" style="stroke:#181818;stroke-width:1.0;"/><line style="stroke:#181818;stroke-width:1.0;" x1="538" x2="877" y1="792.3516" y2="792.3516"/><text fill="#000000" font-family="sans-serif" font-size="13" lengthAdjust="spacing" textLength="88" x="550" y="787.2856">session result</text><polygon fill="#181818" points="288,817.4844,278,821.4844,288,825.4844,284,821.4844" style="stroke:#181818;stroke-width:1.0;"/><line style="stroke:#181818;stroke-width:1.0;stroke-dasharray:2.0,2.0;" x1="282" x2="532" y1="821.4844" y2="821.4844"/><text fill="#000000" font-family="sans-serif" font-size="13" lengthAdjust="spacing" textLength="99" x="294" y="816.4185">follow-up action</text><polygon fill="#181818" points="68.5,846.6172,58.5,850.6172,68.5,854.6172,64.5,850.6172" style="stroke:#181818;stroke-width:1.0;"/><line style="stroke:#181818;stroke-width:1.0;" x1="62.5" x2="276" y1="850.6172" y2="850.6172"/><text fill="#000000" font-family="sans-serif" font-size="13" lengthAdjust="spacing" textLength="99" x="74.5" y="845.5513">follow-up action</text><!--MD5=[6f15ecf759cb12cff47a41ad363bb53f]
@startuml session-no-pairing
skinparam sequence {
backgroundColor #transparent
ActorBorderColor #7A2626
ActorBackgroundColor #transparent
ParticipantBorderColor #7A2626
ParticipantBackgroundColor #004C92
ParticipantFontColor white
} 

actor "IRMA app user" as user
participant "IRMA app" as app
participant frontend as browser
participant "requestor" as requestor
participant "IRMA server" as server

user -> browser: initiate session
browser -> requestor: <font color=#1D5B2A>**POST** /session/</font> (create session)
requestor -> server: initiate session
server <- server: set state to INITIALIZED   
server - -> requestor: session pointer + requestor token + frontendAuth 
requestor - -> browser: session pointer (QR) + frontendAuth
browser -> server: <font color=#1D5B2A>**GET** /irma/session/{clientToken}/frontend/status </font>(start polling)
browser -> user: QR
user -> app: scan QR
app -> browser: read QR
app -> server: <font color=#1D5B2A>**GET** /irma/session/{clientToken}</font>
return session request
server <- server: change state to CONNECTED
server - -> browser: polling response: state changed to CONNECTED

app -> user: perform session?
return yes

app -> server: <font color=#1D5B2A>**POST** /irma/session/{clientToken}/proofs or /irma/session/{clientToken}/commitments</font>
return proofStatus, possibly nextSession, possibly issuer signatures
server <- server: change state to DONE

server - -> browser: polling response: state changed to DONE (+ possibly nextSession)
browser -> requestor: done
requestor -> server: <font color=#1D5B2A>**GET** /session/{requestorToken}/result
server -> requestor: session result
requestor - -> browser: follow-up action

browser -> user: follow-up action

@enduml

PlantUML version 1.2022.7(Mon Aug 22 19:01:30 CEST 2022)
(GPL source distribution)
Java Runtime: OpenJDK Runtime Environment
JVM: OpenJDK 64-Bit Server VM
Default Encoding: UTF-8
Language: en
Country: US
--></g></svg>